#Unknown ASF file
:ROOT_YZX
:FOOT_3DOF
:FULLY-SPECIFIED
:DEGREES
173
root -2.65837 17.7825 -29.0817 -0.550496 -5.42848 -1.7312
lfemur -21.1176 2.80844 -21.2655
ltibia 37.4928
lfoot -12.3273 0 -4.35764
ltoes -12.8931
rfemur -2.23956 -2.8124 19.7971
rtibia 56.9597
rfoot 21.0237 0 -1.03625
rtoes -20.305
lowerback 12.1687 2.04317 -1.28026
upperback 1.78507 2.64545 1.98474
thorax -5.0992 1.34135 2.36828
lowerneck -14.8463 -8.8272 -18.1378
upperneck 13.1557 -10.4921 14.1713
head 8.26744 -4.75781 6.43059
lclavicle 3.67752e-014 1.98785e-015
lhumerus -47.2352 20.578 72.3086
lradius 19.8459
lwrist -9.35375
lhand -9.26476 29.1434
lfingers 7.12502
lthumb 16.6916 58.4458
rclavicle 3.67752e-014 1.98785e-015
rhumerus -33.7136 -0.605862 -83.0458
rradius 38.5492
rwrist -2.45602
rhand -21.4156 11.6253
rfingers 7.12502
rthumb 4.97305 -18.2964
174
root -2.61993 17.6922 -28.5578 -2.49927 -4.691 0.00898066
lfemur -17.2419 2.85304 -23.4371
ltibia 38.0426
lfoot -14.3624 0 -4.67138
ltoes -12.5221
rfemur -4.89608 -3.45009 17.0062
rtibia 65.3258
rfoot 17.0192 0 -7.46158
rtoes 1.41988
lowerback 13.1281 1.23757 -3.06941
upperback 1.80538 1.31343 1.88882
thorax -5.57329 0.725864 3.49629
lowerneck -12.7861 -8.2527 -18.8175
upperneck 13.3111 -10.0203 14.5981
head 7.93398 -4.62165 6.81996
lclavicle -1.19271e-015 -6.75868e-015
lhumerus -46.2626 19.0355 73.901
lradius 20.1072
lwrist -9.478
lhand -10.2549 27.0675
lfingers 7.12502
lthumb 15.7382 56.4476
rclavicle -1.19271e-015 -6.75868e-015
rhumerus -34.7233 -0.905397 -82.4468
rradius 38.1429
rwrist -2.00098
rhand -21.6945 12.2818
rfingers 7.12502
rthumb 4.70378 -17.646
175
root -2.57162 17.6339 -28.1127 -3.42123 -5.31601 1.92169
lfemur -14.3285 3.1287 -25.8397
ltibia 37.6599
lfoot -15.6843 0 -3.933
ltoes -12.2359
rfemur -10.621 -3.90507 14.3228
rtibia 71.9594
rfoot 13.0451 0 -5.43864
rtoes -9.32519
lowerback 13.6994 1.35012 -4.67618
upperback 2.52687 1.18306 1.36831
thorax -5.13247 0.66307 3.87993
lowerneck -14.3154 -8.93514 -18.4705
upperneck 14.1054 -10.8411 14.5702
head 8.59641 -4.93459 6.60434
lclavicle 5.1684e-015 1.07344e-014
lhumerus -41.3102 18.1622 75.5255
lradius 19.417
lwrist -11.4776
lhand -10.3022 29.0577
lfingers 7.12502
lthumb 15.6926 58.4414
rclavicle 5.1684e-015 1.07344e-014
rhumerus -34.2034 -3.69533 -81.6424
rradius 38.0664
rwrist -1.35895
rhand -22.7932 11.1412
rfingers 7.12502
rthumb 3.64278 -18.8075
176
root -2.57355 17.628 -27.5697 -4.39508 -1.55881 2.75399
lfemur -10.6849 1.33336 -26.858
ltibia 36.7619
lfoot -17.2169 0 -5.64224
ltoes -11.0658
rfemur -13.7172 -7.465 13.1437
rtibia 74.9925
rfoot 5.48678 0 -5.03572
rtoes -7.02277
lowerback 13.0098 -0.380911 -5.26968
upperback 2.81079 -1.15576 1.21007
thorax -4.19748 -0.514803 4.44254
lowerneck -12.6857 -8.94971 -18.7329
upperneck 14.12 -11.1759 14.9048
head 8.40813 -5.14975 6.75861
lclavicle -1.49089e-016 -1.70955e-014
lhumerus -38.2133 17.3446 76.3531
lradius 19.4091
lwrist -12.42
lhand -11.9973 28.3097
lfingers 7.12502
lthumb 14.0596 57.8141
rclavicle -1.49089e-016 -1.70955e-014
rhumerus -34.6083 -5.66936 -81.1009
rradius 36.6006
rwrist -1.41611
rhand -24.4499 9.5316
rfingers 7.12502
rthumb 2.04284 -20.4384
177
root -2.51839 17.5903 -27.2064 -4.30908 -4.26692 3.70074
lfemur -8.9887 3.16891 -28.1403
ltibia 35.7357
lfoot -17.7779 0 -4.52695
ltoes -10.5173
rfemur -20.2345 -4.87796 12.5504
rtibia 75.7166
rfoot -0.458081 0 -4.08408
rtoes -8.35249
lowerback 13.5242 0.0929713 -6.00253
upperback 2.48551 -0.674002 1.14082
thorax -4.86984 -0.238818 4.72293
lowerneck -12.2879 -9.19183 -19.1202
upperneck 14.6587 -11.5767 14.9323
head 8.61648 -5.3777 6.79016
lclavicle 1.62506e-014 1.19271e-015
lhumerus -35.1704 14.9908 78.4424
lradius 21.2037
lwrist -10.2592
lhand -12.4164 32.1213
lfingers 7.12502
lthumb 13.6557 61.6533
rclavicle 1.62506e-014 1.19271e-015
rhumerus -35.5809 -6.53848 -80.4496
rradius 35.4937
rwrist -3.66313
rhand -24.3139 11.9518
rfingers 7.12502
rthumb 2.17425 -18.0169
178
root -2.50595 17.5957 -26.7307 -4.61237 -3.58149 4.16787
lfemur -5.90979 2.82278 -28.8079
ltibia 34.217
lfoot -18.3926 0 -4.54315
ltoes -9.81922
rfemur -23.7668 -4.97662 12.5975
rtibia 72.9411
rfoot -5.76924 0 -3.97644
rtoes -7.50461
lowerback 13.2205 -0.395337 -6.22265
upperback 2.82789 -1.32335 1.12353
thorax -4.25326 -0.587511 4.92531
lowerneck -13.3804 -9.74409 -19.2285
upperneck 15.8187 -12.3039 15.156
head 9.36957 -5.66311 6.76228
lclavicle 8.34896e-015 -1.43125e-014
lhumerus -31.2477 13.2225 79.7501
lradius 22.4552
lwrist -8.20169
lhand -12.926 30.7158
lfingers 7.12502
lthumb 13.1645 60.2802
rclavicle 8.34896e-015 -1.43125e-014
rhumerus -35.5754 -7.95734 -79.8765
rradius 33.3839
rwrist -2.79609
rhand -23.8331 12.7069
rfingers 7.12502
rthumb 2.63854 -17.2566
179
root -2.49637 17.6176 -26.3144 -4.43965 -4.31754 4.85824
lfemur -3.69814 3.19292 -29.8198
ltibia 32.6075
lfoot -19.0681 0 -3.58208
ltoes -12.1482
rfemur -27.5728 -3.70801 12.6483
rtibia 67.6423
rfoot -10.6241 0 -3.67519
rtoes -13.6417
lowerback 12.5732 -0.651085 -7.063
upperback 2.61493 -1.72865 1.28531
thorax -4.03714 -0.781943 5.62321
lowerneck -10.8737 -9.48108 -20.4262
upperneck 15.174 -12.2742 15.9371
head 8.82627 -5.76983 7.3152
lclavicle -3.05134e-014 9.54166e-015
lhumerus -29.0545 10.1293 81.4267
lradius 25.5933
lwrist -4.16786
lhand -13.6506 31.607
lfingers 7.12502
lthumb 12.466 61.2152
rclavicle -3.05134e-014 9.54166e-015
rhumerus -36.7446 -7.42059 -79.321
rradius 31.9157
rwrist -1.56324
rhand -22.4046 12.4731
rfingers 7.12502
rthumb 4.01807 -17.4687
180
root -2.50191 17.6631 -25.8969 -3.89648 -4.51667 5.06431
lfemur -1.36309 3.256 -30.2048
ltibia 29.8601
lfoot -18.8376 0 -3.0963
ltoes -12.7501
rfemur -30.3049 -2.89304 13.1967
rtibia 59.6636
rfoot -10.9733 0 -5.22892
rtoes -13.9455
lowerback 13.133 -0.793976 -7.43243
upperback 1.90613 -2.01989 1.51753
thorax -5.03315 -0.853372 6.16691
lowerneck -10.4174 -9.78349 -20.1182
upperneck 15.4597 -12.7658 15.3539
head 8.87182 -6.04935 6.98924
lclavicle 1.35174e-014 1.03368e-014
lhumerus -27.2053 6.79886 82.4821
lradius 28.9693
lwrist -1.98609
lhand -11.9657 32.6256
lfingers 7.12502
lthumb 14.0901 62.128
rclavicle 1.35174e-014 1.03368e-014
rhumerus -38.5361 -6.97978 -78.8675
rradius 30.9844
rwrist -1.0878
rhand -19.4651 17.1457
rfingers 7.12502
rthumb 6.85622 -12.7233
181
root -2.5458 17.7477 -25.4322 -3.32553 -1.72637 5.29861
lfemur 1.75142 2.44749 -30.1443
ltibia 25.9605
lfoot -17.6007 0 -4.69298
ltoes -12.174
rfemur -30.8408 -4.21042 13.44
rtibia 48.9951
rfoot -8.89765 0 -6.7605
rtoes -13.253
lowerback 12.8017 -2.0415 -7.9946
upperback 1.26331 -3.73192 1.79164
thorax -5.20523 -1.65467 7.05232
lowerneck -9.0837 -9.78246 -20.3537
upperneck 15.2792 -12.9907 15.4375
head 8.63498 -6.22328 7.06535
lclavicle 1.86858e-014 0
lhumerus -26.0747 3.03945 83.3652
lradius 32.6796
lwrist 2.5521
lhand -14.5168 30.4013
lfingers 7.12502
lthumb 11.6308 60.0585
rclavicle 1.86858e-014 0
rhumerus -40.4121 -6.78248 -78.1771
rradius 30.1054
rwrist -0.0435874
rhand -21.2227 14.1601
rfingers 7.12502
rthumb 5.1593 -15.7571
182
root -2.57486 17.8024 -24.973 -2.70419 -1.08208 5.55802
lfemur 4.87292 3.22727 -30.1774
ltibia 21.9266
lfoot -16.8668 0 -5.17837
ltoes -15.7601
rfemur -30.731 -2.59325 12.9464
rtibia 37.2353
rfoot -4.82024 0 -6.65465
rtoes 0.519539
lowerback 11.7877 -2.46425 -8.33327
upperback 1.41494 -4.2435 1.90626
thorax -4.35597 -1.95341 7.35882
lowerneck -8.49313 -10.1301 -20.4701
upperneck 14.7971 -13.5953 15.7822
head 8.52267 -6.51381 7.12389
lclavicle -2.25621e-014 -1.27222e-014
lhumerus -23.8014 -0.0472221 83.5674
lradius 37.0187
lwrist 4.82558
lhand -14.1754 31.2957
lfingers 7.12502
lthumb 11.96 60.9341
rclavicle -2.25621e-014 -1.27222e-014
rhumerus -41.2777 -7.24011 -77.6073
rradius 30.1315
rwrist 0.688291
rhand -20.0905 12.3768
rfingers 7.12502
rthumb 6.25248 -17.5109
